<?xml version="1.0" encoding="UTF-8" standalone="no"?>
<!-- Created with Inkscape (http://www.inkscape.org/) -->

<svg
   xmlns:dc="http://purl.org/dc/elements/1.1/"
   xmlns:cc="http://creativecommons.org/ns#"
   xmlns:rdf="http://www.w3.org/1999/02/22-rdf-syntax-ns#"
   xmlns:svg="http://www.w3.org/2000/svg"
   xmlns="http://www.w3.org/2000/svg"
   version="1.1"
   width="278.909"
   height="86.194"
   viewBox="0 0 278.909 86.194003"
   id="Livello_1"
   xml:space="preserve"><metadata
   id="metadata3052"><rdf:RDF><cc:Work
       rdf:about=""><dc:format>image/svg+xml</dc:format><dc:type
         rdf:resource="http://purl.org/dc/dcmitype/StillImage" /><dc:title></dc:title></cc:Work></rdf:RDF></metadata><defs
   id="defs3050" />
<rect
   width="283.46701"
   height="283.465"
   x="0.13299704"
   y="-99.703003"
   id="rect2986"
   style="fill:none" />
<radialGradient
   cx="96.047096"
   cy="707.23187"
   r="45.618401"
   id="SVGID_1_"
   gradientUnits="userSpaceOnUse"
   gradientTransform="translate(-16.7197,-665.3975)">
	<stop
   id="stop2989"
   style="stop-color:#ffffff;stop-opacity:1"
   offset="0" />
	<stop
   id="stop2991"
   style="stop-color:#00684a;stop-opacity:1"
   offset="1" />
</radialGradient>
<polygon
   points="56.008,104.536 32.5,96.7 32.5,26.178 56.008,18.342 "
   transform="translate(-32.500002,-18.342)"
   id="polygon2993"
   style="fill:url(#SVGID_1_)" />
<g
   transform="translate(-32.500002,-18.342)"
   id="g2995">
	<path
   d="m 145.13,67.92 v 0.76 h -6.822 v -0.76 h 2.28 V 53.461 l -5.938,14.948 -0.368,0.026 -5.425,-14.9 v 12.273 c 0,0.833 0.205,1.456 0.614,1.864 0.161,0.166 0.72,0.246 1.669,0.246 v 0.761 h -5.4 v -0.761 c 0.917,0 1.457,-0.074 1.62,-0.221 0.458,-0.395 0.687,-1.023 0.687,-1.892 V 53.093 c -0.049,-0.376 -0.294,-0.565 -0.734,-0.565 h -1.375 v -0.76 h 4.836 l 4.517,12.764 5.155,-12.764 h 4.688 v 0.76 h -2.281 V 67.92 h 2.277 z"
   id="path2997"
   style="fill:#ffffff" />
	<path
   d="m 154.899,67.92 v 0.76 h -7.021 v -0.76 h 2.309 V 52.528 h -2.309 v -0.76 h 7.021 v 0.76 h -2.283 V 67.92 h 2.283 z"
   id="path2999"
   style="fill:#ffffff" />
	<path
   d="m 173.382,51.768 v 0.76 c -0.947,0 -1.506,0.083 -1.669,0.246 -0.426,0.425 -0.639,1.055 -0.639,1.89 l 0.05,14.433 h -0.562 L 160.176,53.093 v 12.716 c 0,0.852 0.204,1.473 0.613,1.863 0.164,0.166 0.721,0.248 1.669,0.248 v 0.76 h -5.424 v -0.76 c 0.916,0 1.456,-0.074 1.62,-0.221 0.458,-0.396 0.688,-1.025 0.688,-1.893 V 53.093 c -0.049,-0.376 -0.295,-0.565 -0.735,-0.565 h -1.375 v -0.76 h 4.909 l 8.125,12.639 v -9.743 c 0,-0.835 -0.229,-1.473 -0.688,-1.915 -0.181,-0.147 -0.72,-0.221 -1.62,-0.221 v -0.76 h 5.424 z"
   id="path3001"
   style="fill:#ffffff" />
	<path
   d="m 182.219,67.92 v 0.76 h -7.021 v -0.76 h 2.308 V 52.528 h -2.308 v -0.76 h 7.021 v 0.76 h -2.282 V 67.92 h 2.282 z"
   id="path3003"
   style="fill:#ffffff" />
	<path
   d="m 195.376,63.278 c 0,1.898 -0.762,3.348 -2.28,4.348 -1.312,0.867 -2.956,1.301 -4.936,1.301 -1.197,0 -2.53,-0.276 -4.001,-0.836 l 0.023,-3.901 h 0.733 c 0.101,1.294 0.483,2.228 1.155,2.802 0.311,0.262 0.768,0.479 1.375,0.66 0.604,0.182 1.152,0.262 1.645,0.244 1.131,-0.016 2.119,-0.318 2.972,-0.904 0.835,-0.607 1.269,-1.416 1.3,-2.433 0,-1.064 -0.372,-1.915 -1.117,-2.553 -0.743,-0.639 -1.771,-1.031 -3.081,-1.18 -3.482,-0.424 -5.228,-1.882 -5.228,-4.369 0,-1.734 0.663,-3.052 1.986,-3.952 1.132,-0.785 2.506,-1.178 4.124,-1.178 0.477,0 1.038,0.07 1.694,0.208 0.654,0.14 1.074,0.209 1.264,0.209 0.188,0 0.314,-0.123 0.383,-0.368 h 0.687 v 4.394 h -0.736 c -0.113,-1.21 -0.479,-2.087 -1.093,-2.626 -0.614,-0.54 -1.523,-0.802 -2.736,-0.786 -2.39,0.034 -3.566,1.105 -3.533,3.216 0.03,1.881 1.342,2.953 3.929,3.214 3.646,0.392 5.471,1.89 5.471,4.49 z"
   id="path3005"
   style="fill:#ffffff" />
	<path
   d="m 211.675,51.768 0.05,4.982 h -0.735 c -0.1,-1.374 -0.466,-2.393 -1.105,-3.056 -0.639,-0.663 -1.76,-1.035 -3.361,-1.117 l -1.129,-0.049 V 67.92 h 2.309 v 0.76 h -6.825 v -0.76 h 2.284 V 52.528 l -1.104,0.049 c -1.586,0.066 -2.696,0.414 -3.326,1.044 -0.631,0.63 -1.021,1.673 -1.166,3.129 h -0.712 l 0.049,-4.982 h 14.771 z"
   id="path3007"
   style="fill:#ffffff" />
	<path
   d="m 227.312,62.813 h 0.785 l -0.271,5.866 h -14.263 v -0.761 h 2.309 v -15.39 h -2.309 v -0.76 h 13.87 l 0.051,4.982 h -0.762 c -0.116,-1.423 -0.512,-2.466 -1.18,-3.129 -0.671,-0.663 -1.769,-1.011 -3.291,-1.044 l -4.196,-0.049 v 7.119 h 2.996 c 0.702,0 1.228,-0.203 1.568,-0.613 0.377,-0.525 0.566,-1.285 0.566,-2.284 h 0.761 v 6.8 h -0.761 c 0,-0.966 -0.201,-1.719 -0.604,-2.258 -0.401,-0.54 -0.913,-0.811 -1.534,-0.811 h -2.995 v 7.438 l 4.592,-0.074 c 0.457,0 1.011,-0.12 1.655,-0.367 0.646,-0.245 1.126,-0.521 1.438,-0.835 0.986,-0.916 1.509,-2.195 1.575,-3.83 z"
   id="path3009"
   style="fill:#ffffff" />
	<path
   d="m 240.958,67.354 -4.688,-6.7 h -1.495 l 0.047,7.267 h 2.285 v 0.761 h -6.824 V 67.92 h 2.281 V 52.528 h -2.281 v -0.76 h 7.438 c 1.979,0 3.483,0.392 4.517,1.178 1.03,0.785 1.546,1.833 1.546,3.143 0,1.308 -0.458,2.373 -1.376,3.19 -0.882,0.736 -2.044,1.153 -3.485,1.25 l 5.034,6.826 c 0.261,0.328 0.841,0.53 1.742,0.612 v 0.736 c -1.195,-0.047 -3.085,-0.047 -5.672,0 l 0.023,-0.783 h 0.688 c 0.229,-0.051 0.345,-0.139 0.345,-0.26 0,-0.12 -0.043,-0.224 -0.125,-0.306 z m -4.048,-7.412 c 2.979,0 4.437,-1.285 4.367,-3.854 -0.064,-2.374 -1.35,-3.561 -3.854,-3.561 h -2.604 l -0.047,7.415 h 2.138 z"
   id="path3011"
   style="fill:#ffffff" />
	<path
   d="m 259.86,53.78 c 1.343,1.604 2.014,3.703 2.014,6.297 0,2.593 -0.704,4.734 -2.109,6.419 -1.407,1.685 -3.162,2.524 -5.267,2.524 -2.104,0 -3.908,-0.856 -5.413,-2.577 -1.475,-1.73 -2.191,-3.873 -2.16,-6.417 0.031,-2.546 0.758,-4.632 2.174,-6.26 1.415,-1.628 3.229,-2.442 5.446,-2.442 2.219,0.002 3.99,0.82 5.315,2.456 z m -5.35,14.385 c 1.522,0 2.678,-0.729 3.464,-2.185 0.781,-1.458 1.177,-3.393 1.177,-5.806 0,-2.413 -0.343,-4.307 -1.03,-5.682 -0.815,-1.604 -2.074,-2.406 -3.769,-2.406 -1.692,0 -2.935,0.761 -3.721,2.283 -0.652,1.293 -0.98,3.224 -0.98,5.793 -0.003,5.335 1.619,8.003 4.859,8.003 z"
   id="path3013"
   style="fill:#ffffff" />
	<path
   d="m 141.275,87.433 c 0,2.292 -0.757,4.267 -2.271,5.916 -1.515,1.653 -3.261,2.448 -5.239,2.384 -2.979,-0.1 -5.771,-0.115 -8.371,-0.051 V 94.92 h 2.307 V 79.529 h -2.307 v -0.76 c 1.457,0.081 2.75,0.114 3.879,0.099 1.129,-0.018 2.649,-0.018 4.563,0 2.31,0.031 4.125,0.812 5.451,2.344 1.326,1.529 1.988,3.602 1.988,6.221 z m -3.755,5.131 c 0.802,-1.276 1.189,-3.039 1.166,-5.29 -0.024,-2.25 -0.349,-3.98 -0.971,-5.191 -0.77,-1.555 -2.062,-2.403 -3.879,-2.554 -1.473,-0.081 -2.79,-0.048 -3.95,0.099 V 94.92 c 1.111,0.101 1.949,0.146 2.516,0.146 0.562,0 1.027,-0.017 1.387,-0.047 1.685,-0.246 2.929,-1.063 3.731,-2.455 z"
   id="path3015"
   style="fill:#ffffff" />
	<path
   d="m 157.821,89.815 h 0.785 l -0.271,5.866 H 144.073 V 94.92 h 2.308 V 79.529 h -2.308 v -0.76 h 13.869 l 0.049,4.981 h -0.761 c -0.115,-1.422 -0.507,-2.467 -1.18,-3.129 -0.672,-0.664 -1.769,-1.013 -3.288,-1.043 l -4.197,-0.052 v 7.12 h 2.995 c 0.704,0 1.228,-0.204 1.569,-0.613 0.376,-0.523 0.564,-1.285 0.564,-2.283 h 0.761 v 6.801 h -0.761 c 0,-0.967 -0.2,-1.719 -0.602,-2.258 -0.4,-0.541 -0.912,-0.812 -1.533,-0.812 h -2.995 v 7.438 l 4.59,-0.071 c 0.458,0 1.01,-0.123 1.657,-0.37 0.646,-0.243 1.125,-0.521 1.437,-0.833 0.984,-0.917 1.508,-2.193 1.574,-3.83 z"
   id="path3017"
   style="fill:#ffffff" />
	<path
   d="m 173.948,89.815 h 0.786 l -0.319,5.866 H 161.037 V 94.92 h 2.31 V 79.529 h -2.31 v -0.76 h 6.8 v 0.76 h -2.308 V 94.92 l 3.756,-0.072 c 0.442,0 0.99,-0.123 1.646,-0.37 0.653,-0.243 1.138,-0.521 1.447,-0.833 0.98,-0.917 1.504,-2.193 1.57,-3.83 z"
   id="path3019"
   style="fill:#ffffff" />
	<path
   d="m 189.78,89.815 h 0.786 l -0.318,5.866 h -13.38 V 94.92 h 2.308 V 79.529 h -2.308 v -0.76 h 6.8 v 0.76 H 181.36 V 94.92 l 3.756,-0.072 c 0.442,0 0.99,-0.123 1.646,-0.37 0.649,-0.243 1.137,-0.521 1.446,-0.833 0.982,-0.917 1.508,-2.193 1.572,-3.83 z"
   id="path3021"
   style="fill:#ffffff" />
	<path
   d="m 195.794,78.353 c 0.639,0 1.138,0.267 1.497,0.796 0.36,0.531 0.541,1.121 0.541,1.77 0,0.646 -0.317,1.36 -0.957,2.146 -0.59,0.771 -1.234,1.293 -1.938,1.57 l -0.271,-0.539 c 0.441,-0.163 0.909,-0.531 1.4,-1.105 0.489,-0.572 0.734,-1.08 0.734,-1.521 0,-0.26 -0.121,-0.393 -0.368,-0.393 l -0.833,0.073 c -0.899,-0.114 -1.353,-0.521 -1.353,-1.228 0.001,-1.048 0.517,-1.569 1.548,-1.569 z"
   id="path3023"
   style="fill:#ffffff" />
	<path
   d="m 208.361,94.92 v 0.762 H 201.34 V 94.92 h 2.311 V 79.529 h -2.311 v -0.76 h 7.021 v 0.76 h -2.284 V 94.92 h 2.284 z"
   id="path3025"
   style="fill:#ffffff" />
	<path
   d="m 226.844,78.77 v 0.76 c -0.948,0 -1.507,0.082 -1.67,0.247 -0.427,0.425 -0.639,1.054 -0.639,1.89 l 0.049,14.435 h -0.562 L 213.636,80.098 V 92.81 c 0,0.851 0.202,1.472 0.611,1.864 0.164,0.166 0.722,0.246 1.67,0.246 v 0.762 h -5.426 V 94.92 c 0.918,0 1.458,-0.072 1.621,-0.219 0.457,-0.396 0.688,-1.023 0.688,-1.894 V 80.094 c -0.051,-0.375 -0.296,-0.564 -0.735,-0.564 h -1.376 v -0.76 h 4.91 l 8.126,12.641 v -9.744 c 0,-0.836 -0.229,-1.473 -0.688,-1.916 -0.181,-0.146 -0.722,-0.221 -1.621,-0.221 v -0.76 h 5.428 z"
   id="path3027"
   style="fill:#ffffff" />
	<path
   d="m 243.217,78.77 0.052,4.98 h -0.735 c -0.099,-1.373 -0.468,-2.394 -1.104,-3.056 -0.641,-0.663 -1.762,-1.034 -3.363,-1.114 l -1.13,-0.053 V 94.92 h 2.306 v 0.762 h -6.821 V 94.92 h 2.282 V 79.529 l -1.104,0.052 c -1.59,0.063 -2.697,0.41 -3.325,1.041 -0.631,0.631 -1.021,1.674 -1.167,3.129 h -0.712 l 0.051,-4.979 14.77,-0.002 0,0 z"
   id="path3029"
   style="fill:#ffffff" />
	<path
   d="m 258.854,89.815 h 0.786 l -0.271,5.866 H 245.107 V 94.92 h 2.31 V 79.529 h -2.31 v -0.76 h 13.871 l 0.047,4.981 h -0.759 c -0.115,-1.422 -0.511,-2.467 -1.182,-3.129 -0.672,-0.664 -1.768,-1.013 -3.289,-1.043 L 249.6,79.526 v 7.12 h 2.994 c 0.702,0 1.228,-0.204 1.57,-0.613 0.376,-0.523 0.563,-1.285 0.563,-2.283 h 0.762 v 6.801 h -0.762 c 0,-0.967 -0.201,-1.719 -0.604,-2.258 -0.398,-0.541 -0.911,-0.812 -1.533,-0.812 h -2.993 v 7.438 l 4.59,-0.071 c 0.458,0 1.01,-0.123 1.657,-0.37 0.646,-0.243 1.124,-0.521 1.436,-0.833 0.987,-0.917 1.509,-2.193 1.574,-3.83 z"
   id="path3031"
   style="fill:#ffffff" />
	<path
   d="m 272.503,94.355 -4.688,-6.7 h -1.498 l 0.05,7.266 h 2.281 v 0.763 h -6.823 V 94.92 h 2.284 V 79.529 h -2.284 v -0.76 h 7.438 c 1.979,0 3.483,0.394 4.516,1.177 1.031,0.786 1.547,1.834 1.547,3.145 0,1.309 -0.459,2.371 -1.374,3.188 -0.885,0.736 -2.045,1.153 -3.485,1.253 l 5.031,6.823 c 0.261,0.328 0.844,0.532 1.743,0.614 v 0.734 c -1.194,-0.047 -3.085,-0.047 -5.67,0 l 0.024,-0.783 h 0.688 c 0.229,-0.051 0.343,-0.137 0.343,-0.26 0,-0.12 -0.041,-0.223 -0.123,-0.305 z m -4.052,-7.412 c 2.979,0 4.438,-1.284 4.371,-3.854 -0.065,-2.373 -1.351,-3.561 -3.855,-3.561 h -2.601 l -0.05,7.414 2.135,0.001 0,0 z"
   id="path3033"
   style="fill:#ffffff" />
	<path
   d="m 294.521,78.77 v 0.76 c -0.95,0 -1.506,0.082 -1.67,0.247 -0.428,0.425 -0.639,1.054 -0.639,1.89 l 0.051,14.435 h -0.564 L 281.315,80.098 V 92.81 c 0,0.851 0.203,1.472 0.613,1.864 0.161,0.166 0.719,0.246 1.668,0.246 v 0.762 H 278.17 V 94.92 c 0.917,0 1.457,-0.072 1.619,-0.219 0.459,-0.396 0.688,-1.023 0.688,-1.894 V 80.094 c -0.05,-0.375 -0.295,-0.564 -0.735,-0.564 h -1.376 v -0.76 h 4.909 l 8.127,12.641 v -9.744 c 0,-0.836 -0.231,-1.473 -0.688,-1.916 -0.18,-0.146 -0.722,-0.221 -1.618,-0.221 v -0.76 h 5.425 z"
   id="path3035"
   style="fill:#ffffff" />
	<path
   d="m 309.397,80.782 c 1.341,1.604 2.012,3.701 2.012,6.297 0,2.594 -0.702,4.733 -2.107,6.42 -1.407,1.686 -3.166,2.525 -5.269,2.525 -2.103,0 -3.908,-0.857 -5.413,-2.576 -1.472,-1.734 -2.191,-3.875 -2.16,-6.418 0.033,-2.547 0.758,-4.632 2.172,-6.262 1.417,-1.628 3.234,-2.443 5.451,-2.443 2.218,0 3.989,0.821 5.314,2.457 z m -5.352,14.385 c 1.521,0 2.68,-0.729 3.464,-2.185 0.786,-1.458 1.18,-3.394 1.18,-5.806 0,-2.416 -0.347,-4.309 -1.031,-5.686 -0.818,-1.605 -2.076,-2.404 -3.769,-2.404 -1.695,0 -2.937,0.761 -3.723,2.283 -0.652,1.295 -0.979,3.225 -0.979,5.795 0,5.335 1.62,8.003 4.858,8.003 z"
   id="path3037"
   style="fill:#ffffff" />
</g>
<rect
   width="23.902"
   height="70.512001"
   x="23.520998"
   y="7.8389997"
   id="rect3039"
   style="fill:#ffffff" />
<radialGradient
   cx="96.0476"
   cy="707.23291"
   r="45.617901"
   id="SVGID_2_"
   gradientUnits="userSpaceOnUse"
   gradientTransform="translate(-49.219702,-683.7395)">
	<stop
   id="stop3042"
   style="stop-color:#ffffff;stop-opacity:1"
   offset="0" />
	<stop
   id="stop3044"
   style="stop-color:#ce0006;stop-opacity:1"
   offset="1" />
</radialGradient>
<rect
   width="23.507"
   height="70.522003"
   x="47.014996"
   y="7.8359995"
   id="rect3046"
   style="fill:url(#SVGID_2_)" />
</svg>